REM MD5 f4684ddee340b5b0403487aa99a27f31
FILE "History of Kita Denshi (Japan).bin" BINARY
  TRACK 01 MODE2/2352
    INDEX 01 00:00:00
  TRACK 02 AUDIO
    INDEX 00 01:04:39
    INDEX 01 01:06:39
  TRACK 03 AUDIO
    INDEX 00 04:14:28
    INDEX 01 04:16:28
  TRACK 04 AUDIO
    INDEX 00 06:28:46
    INDEX 01 06:30:46
  TRACK 05 AUDIO
    INDEX 00 09:12:03
    INDEX 01 09:14:03
  TRACK 06 AUDIO
    INDEX 00 11:23:53
    INDEX 01 11:25:53
REM LEADOUT 14:24:59
